<?xml version="1.0" standalone="no"?>
<!DOCTYPE svg PUBLIC "-//W3C//DTD SVG 20010904//EN"
 "http://www.w3.org/TR/2001/REC-SVG-20010904/DTD/svg10.dtd">
<svg version="1.0" xmlns="http://www.w3.org/2000/svg"
 width="400.000000pt" height="400.000000pt" viewBox="0 0 400.000000 400.000000"
 preserveAspectRatio="xMidYMid meet">
<metadata>
Created by potrace 1.14, written by Peter Selinger 2001-2017
</metadata>
<g transform="translate(0.000000,400.000000) scale(0.100000,-0.100000)"
fill="#000000" stroke="none">
<path d="M1995 3130 c-376 -58 -706 -339 -823 -700 -25 -77 -52 -225 -52 -286
l0 -44 -423 0 c-366 0 -426 -2 -445 -16 -28 -20 -30 -69 -3 -84 13 -6 179 -10
471 -10 427 0 452 -1 445 -17 -5 -10 -10 -78 -13 -151 -4 -112 -1 -147 18
-228 56 -246 219 -429 398 -451 52 -6 54 -7 74 -52 125 -280 206 -384 358
-461 101 -51 164 -64 295 -64 103 0 131 4 198 27 125 43 217 109 294 211 68
90 139 245 171 375 15 61 32 111 37 111 6 0 28 14 50 31 119 90 147 250 65
371 -26 37 -30 52 -30 114 0 39 -5 96 -10 125 -9 48 -9 55 7 64 9 6 30 23 46
40 l29 30 -5 130 c-6 148 -26 232 -86 361 -129 275 -369 475 -660 551 -108 28
-302 39 -406 23z m25 -1158 c-23 -11 -38 -14 -42 -7 -15 20 -7 25 35 25 l42 0
-35 -18z m575 -3 c-50 -25 -92 -65 -115 -110 -17 -32 -22 -35 -59 -34 -37 1
-44 5 -69 45 -35 54 -56 74 -108 100 l-39 19 215 0 215 0 -40 -20z m-376 -48
c69 -36 121 -115 121 -186 0 -118 -126 -227 -242 -208 -95 15 -178 109 -178
202 0 74 60 168 125 197 45 20 129 17 174 -5z m578 -50 c39 -59 41 -65 28 -85
-11 -15 -15 -50 -15 -128 0 -92 -2 -109 -17 -116 -66 -34 -167 -14 -226 44
-36 36 -76 118 -63 131 3 3 6 -1 6 -10 0 -21 47 -57 74 -57 33 0 66 36 66 72
0 44 -25 68 -72 68 -33 0 -41 -5 -58 -32 -22 -36 -25 -23 -9 35 23 83 110 148
193 144 49 -2 50 -3 93 -66z m-1197 -331 c0 -233 3 -224 -68 -194 -171 71
-175 307 -7 385 78 36 75 45 75 -191z m271 148 c12 -80 56 -142 131 -184 46
-25 64 -29 128 -29 81 0 121 15 172 63 15 14 30 24 32 21 5 -5 -29 -178 -37
-186 -4 -3 -25 2 -49 12 -48 19 -163 31 -202 21 -81 -20 -130 -118 -124 -246
2 -39 1 -70 -2 -70 -12 1 -74 97 -103 158 l-32 67 -3 201 -3 201 33 10 c47 15
52 12 59 -39z m1159 0 c18 -18 39 -47 46 -65 18 -42 18 -124 0 -166 -14 -34
-71 -97 -87 -97 -5 0 -9 77 -9 180 0 99 4 180 8 180 5 0 23 -15 42 -32z m-431
-193 c44 -22 126 -30 174 -17 l39 11 -4 -137 c-3 -97 -9 -147 -20 -172 -16
-35 -16 -35 -11 41 12 168 -55 222 -207 169 -30 -10 -56 -18 -57 -16 -2 2 -33
200 -33 213 0 4 19 -11 43 -34 23 -22 57 -48 76 -58z m-339 -216 c103 -47 175
-47 278 0 86 38 136 49 147 31 4 -7 2 -82 -5 -167 l-14 -155 -34 -28 c-20 -16
-55 -39 -78 -52 l-44 -23 -63 63 c-53 52 -68 62 -98 62 -29 0 -44 -9 -94 -60
-33 -33 -67 -60 -76 -60 -23 0 -135 74 -143 95 -14 37 -29 202 -22 246 4 25
16 56 28 69 19 20 28 22 82 18 40 -4 88 -17 136 -39z"/>
<path d="M2126 1768 c-24 -34 -20 -73 10 -97 15 -12 34 -21 44 -21 10 0 29 9
44 21 30 24 34 63 10 97 -21 31 -87 31 -108 0z"/>
<path d="M2147 1233 c-27 -27 37 -88 124 -118 58 -21 158 -19 218 4 69 26 123
69 119 95 -5 31 -33 31 -75 -2 -49 -38 -93 -52 -162 -52 -59 0 -144 32 -170
63 -14 17 -42 22 -54 10z"/>
</g>
</svg>
